<svg width="19" height="19" viewBox="0 0 19 19" fill="none" xmlns="http://www.w3.org/2000/svg">
<path fill-rule="evenodd" clip-rule="evenodd" d="M1.58398 9.49967C1.58398 5.1273 5.12828 1.58301 9.50065 1.58301C13.873 1.58301 17.4173 5.1273 17.4173 9.49967C17.4173 13.872 13.873 17.4163 9.50065 17.4163C5.12828 17.4163 1.58398 13.872 1.58398 9.49967ZM9.50065 3.16634C7.82095 3.16634 6.21004 3.8336 5.02231 5.02133C3.83458 6.20906 3.16732 7.81997 3.16732 9.49967C3.16732 11.1794 3.83458 12.7903 5.02231 13.978C6.21004 15.1657 7.82095 15.833 9.50065 15.833C11.1804 15.833 12.7913 15.1657 13.979 13.978C15.1667 12.7903 15.834 11.1794 15.834 9.49967C15.834 7.81997 15.1667 6.20906 13.979 5.02133C12.7913 3.8336 11.1804 3.16634 9.50065 3.16634Z" fill="#4367B0"/>
<path fill-rule="evenodd" clip-rule="evenodd" d="M10.2917 5.54167C10.2917 5.3317 10.2083 5.13034 10.0598 4.98187C9.91133 4.83341 9.70996 4.75 9.5 4.75C9.29004 4.75 9.08867 4.83341 8.94021 4.98187C8.79174 5.13034 8.70833 5.3317 8.70833 5.54167V8.70833H5.54167C5.3317 8.70833 5.13034 8.79174 4.98187 8.94021C4.83341 9.08867 4.75 9.29004 4.75 9.5C4.75 9.70996 4.83341 9.91133 4.98187 10.0598C5.13034 10.2083 5.3317 10.2917 5.54167 10.2917H8.70833V13.4583C8.70833 13.6683 8.79174 13.8697 8.94021 14.0181C9.08867 14.1666 9.29004 14.25 9.5 14.25C9.70996 14.25 9.91133 14.1666 10.0598 14.0181C10.2083 13.8697 10.2917 13.6683 10.2917 13.4583V10.2917H13.4583C13.6683 10.2917 13.8697 10.2083 14.0181 10.0598C14.1666 9.91133 14.25 9.70996 14.25 9.5C14.25 9.29004 14.1666 9.08867 14.0181 8.94021C13.8697 8.79174 13.6683 8.70833 13.4583 8.70833H10.2917V5.54167Z" fill="#4367B0"/>
</svg>
