<svg xmlns="http://www.w3.org/2000/svg" width="24" height="24" viewBox="0 0 24 24" fill="none">
  <mask id="mask0_182_4713" style="mask-type:alpha" maskUnits="userSpaceOnUse" x="0" y="0" width="24" height="24">
    <rect x="24" y="24" width="24" height="24" transform="rotate(-180 24 24)" fill="#D9D9D9"/>
  </mask>
  <g mask="url(#mask0_182_4713)">
    <path d="M13.2877 6.73772C13.6761 6.33546 14.3242 6.32424 14.7196 6.71962L19.2929 11.2929C19.6834 11.6834 19.6834 12.3166 19.2929 12.7071L14.7196 17.2804C14.3242 17.6758 13.6761 17.6645 13.2877 17.2623C12.9089 16.8699 12.9091 16.2409 13.2948 15.8552L16.15 13L5 13C4.44772 13 4 12.5523 4 12C4 11.4477 4.44772 11 5 11L16.15 11L13.2948 8.14481C12.9091 7.75912 12.9089 7.13011 13.2877 6.73772Z" fill="white"/>
  </g>
</svg>