<svg width="22" height="22" viewBox="0 0 22 22" fill="none" xmlns="http://www.w3.org/2000/svg">
<g id="Frame" clip-path="url(#clip0_984_4293)">
<path id="Vector" d="M11 11C13.8406 11 16.1429 8.69777 16.1429 5.85714C16.1429 3.01652 13.8406 0.714287 11 0.714287C8.15938 0.714287 5.85714 3.01652 5.85714 5.85714C5.85714 8.69777 8.15938 11 11 11ZM14.8491 12.3098L12.9286 20L11.6429 14.5357L12.9286 12.2857H9.07143L10.3571 14.5357L9.07143 20L7.15089 12.3098C4.28616 12.4464 2 14.7888 2 17.6857V19.3571C2 20.4219 2.86384 21.2857 3.92857 21.2857H18.0714C19.1362 21.2857 20 20.4219 20 19.3571V17.6857C20 14.7888 17.7138 12.4464 14.8491 12.3098Z" fill="#4367B0"/>
</g>
<defs>
<clipPath id="clip0_984_4293">
<rect width="20.5714" height="20.5714" fill="white" transform="translate(0.714844 0.714294)"/>
</clipPath>
</defs>
</svg>
