<svg xmlns="http://www.w3.org/2000/svg" width="19" height="20" viewBox="0 0 19 20" fill="none">
  <path fill-rule="evenodd" clip-rule="evenodd" d="M3.5466 1.76758H3.48327C3.1932 1.76758 2.94367 1.76758 2.72327 1.81951C2.38207 1.90104 2.07011 2.07544 1.82195 2.32338C1.57378 2.57132 1.3991 2.88312 1.31727 3.22424C1.2666 3.44464 1.2666 3.69291 1.2666 3.98424V7.15091C1.2666 7.44098 1.2666 7.69051 1.31853 7.91091C1.40006 8.25211 1.57446 8.56407 1.8224 8.81223C2.07034 9.0604 2.38215 9.23507 2.72327 9.31691C2.94367 9.36758 3.19193 9.36758 3.48327 9.36758H6.64993C6.94 9.36758 7.18953 9.36758 7.40993 9.31564C7.75113 9.23412 8.06309 9.05972 8.31126 8.81178C8.55942 8.56384 8.7341 8.25203 8.81593 7.91091C8.8666 7.69051 8.8666 7.44224 8.8666 7.15091V3.98424C8.8666 3.69418 8.8666 3.44464 8.81467 3.22424C8.73314 2.88305 8.55874 2.57109 8.3108 2.32292C8.06286 2.07476 7.75106 1.90008 7.40993 1.81824C7.18953 1.76758 6.94127 1.76758 6.64993 1.76758H6.5866H3.5466ZM3.0184 3.05198C3.07287 3.03931 3.15773 3.03424 3.5466 3.03424H6.5866C6.97673 3.03424 7.06034 3.03804 7.1148 3.05198C7.22859 3.07919 7.33261 3.13738 7.41534 3.22011C7.49806 3.30284 7.55626 3.40686 7.58347 3.52064C7.59613 3.57384 7.59993 3.65744 7.59993 4.04758V7.08758C7.59993 7.47771 7.59613 7.56131 7.5822 7.61578C7.55499 7.72956 7.4968 7.83359 7.41407 7.91631C7.33134 7.99904 7.22732 8.05723 7.11353 8.08444C7.0616 8.09584 6.978 8.10091 6.5866 8.10091H3.5466C3.15647 8.10091 3.07287 8.09711 3.0184 8.08318C2.90462 8.05597 2.80059 7.99777 2.71787 7.91505C2.63514 7.83232 2.57694 7.7283 2.54973 7.61451C2.53833 7.56258 2.53327 7.47898 2.53327 7.08758V4.04758C2.53327 3.65744 2.53707 3.57384 2.551 3.51938C2.57821 3.40559 2.63641 3.30157 2.71913 3.21884C2.80186 3.13612 2.90588 3.07792 3.01967 3.05071M12.4133 1.76758H12.3499C12.0599 1.76758 11.8103 1.76758 11.5899 1.81951C11.2487 1.90104 10.9368 2.07544 10.6886 2.32338C10.4404 2.57132 10.2658 2.88312 10.1839 3.22424C10.1333 3.44464 10.1333 3.69291 10.1333 3.98424V7.15091C10.1333 7.44098 10.1333 7.69051 10.1852 7.91091C10.2667 8.25211 10.4411 8.56407 10.6891 8.81223C10.937 9.0604 11.2488 9.23507 11.5899 9.31691C11.8103 9.36758 12.0586 9.36758 12.3499 9.36758H15.5166C15.8067 9.36758 16.0562 9.36758 16.2766 9.31564C16.6178 9.23412 16.9298 9.05972 17.1779 8.81178C17.4261 8.56384 17.6008 8.25203 17.6826 7.91091C17.7333 7.69051 17.7333 7.44224 17.7333 7.15091V3.98424C17.7333 3.69418 17.7333 3.44464 17.6813 3.22424C17.5998 2.88305 17.4254 2.57109 17.1775 2.32292C16.9295 2.07476 16.6177 1.90008 16.2766 1.81824C16.0562 1.76758 15.8079 1.76758 15.5166 1.76758H15.4533H12.4133ZM11.8851 3.05198C11.9395 3.03931 12.0244 3.03424 12.4133 3.03424H15.4533C15.8434 3.03424 15.927 3.03804 15.9815 3.05198C16.0953 3.07919 16.1993 3.13738 16.282 3.22011C16.3647 3.30284 16.4229 3.40686 16.4501 3.52064C16.4628 3.57384 16.4666 3.65744 16.4666 4.04758V7.08758C16.4666 7.47771 16.4615 7.56131 16.4489 7.61578C16.4217 7.72956 16.3635 7.83359 16.2807 7.91631C16.198 7.99904 16.094 8.05723 15.9802 8.08444C15.927 8.09711 15.8434 8.10091 15.4533 8.10091H12.4133C12.0231 8.10091 11.9395 8.09711 11.8851 8.08318C11.7713 8.05597 11.6673 7.99777 11.5845 7.91505C11.5018 7.83232 11.4436 7.7283 11.4164 7.61451C11.405 7.56258 11.3999 7.47898 11.3999 7.08758V4.04758C11.3999 3.65744 11.4037 3.57384 11.4177 3.51938C11.4449 3.40559 11.5031 3.30157 11.5858 3.21884C11.6685 3.13612 11.7725 3.07792 11.8863 3.05071M3.48327 10.6342H6.64993C6.94 10.6342 7.18953 10.6342 7.40993 10.6862C7.75113 10.7677 8.06309 10.9421 8.31126 11.19C8.55942 11.438 8.7341 11.7498 8.81593 12.0909C8.8666 12.3113 8.8666 12.5596 8.8666 12.8509V16.0176C8.8666 16.3076 8.8666 16.5572 8.81467 16.7776C8.73314 17.1188 8.55874 17.4307 8.3108 17.6789C8.06286 17.9271 7.75106 18.1017 7.40993 18.1836C7.18953 18.2342 6.94127 18.2342 6.64993 18.2342H3.48327C3.1932 18.2342 2.94367 18.2342 2.72327 18.1823C2.38207 18.1008 2.07011 17.9264 1.82195 17.6784C1.57378 17.4305 1.3991 17.1187 1.31727 16.7776C1.2666 16.5572 1.2666 16.3089 1.2666 16.0176V12.8509C1.2666 12.5608 1.2666 12.3113 1.31853 12.0909C1.40006 11.7497 1.57446 11.4378 1.8224 11.1896C2.07034 10.9414 2.38215 10.7667 2.72327 10.6849C2.94367 10.6342 3.19193 10.6342 3.48327 10.6342ZM3.5466 11.9009C3.15647 11.9009 3.07287 11.9047 3.0184 11.9186C2.90462 11.9459 2.80059 12.004 2.71787 12.0868C2.63514 12.1695 2.57694 12.2735 2.54973 12.3873C2.53833 12.4392 2.53327 12.5228 2.53327 12.9142V15.9542C2.53327 16.3444 2.53707 16.428 2.551 16.4824C2.57821 16.5962 2.63641 16.7003 2.71913 16.783C2.80186 16.8657 2.90588 16.9239 3.01967 16.9511C3.07287 16.9638 3.15647 16.9676 3.5466 16.9676H6.5866C6.97673 16.9676 7.06034 16.9625 7.1148 16.9498C7.22859 16.9226 7.33261 16.8644 7.41534 16.7817C7.49806 16.699 7.55626 16.595 7.58347 16.4812C7.59613 16.428 7.59993 16.3444 7.59993 15.9542V12.9142C7.59993 12.5241 7.59613 12.4405 7.5822 12.386C7.55499 12.2723 7.4968 12.1682 7.41407 12.0855C7.33134 12.0028 7.22732 11.9446 7.11353 11.9174C7.0616 11.906 6.978 11.9009 6.5866 11.9009H3.5466ZM12.4133 10.6342H12.3499C12.0599 10.6342 11.8103 10.6342 11.5899 10.6862C11.2487 10.7677 10.9368 10.9421 10.6886 11.19C10.4404 11.438 10.2658 11.7498 10.1839 12.0909C10.1333 12.3113 10.1333 12.5596 10.1333 12.8509V16.0176C10.1333 16.3076 10.1333 16.5572 10.1852 16.7776C10.2667 17.1188 10.4411 17.4307 10.6891 17.6789C10.937 17.9271 11.2488 18.1017 11.5899 18.1836C11.8103 18.2355 12.0599 18.2355 12.3499 18.2355H15.5166C15.8067 18.2355 16.0562 18.2355 16.2766 18.1836C16.6176 18.1018 16.9293 17.9274 17.1772 17.6794C17.4251 17.4315 17.5996 17.1198 17.6813 16.7788C17.7333 16.5584 17.7333 16.3089 17.7333 16.0188V12.8509C17.7333 12.5608 17.7333 12.3113 17.6813 12.0909C17.5998 11.7497 17.4254 11.4378 17.1775 11.1896C16.9295 10.9414 16.6177 10.7667 16.2766 10.6849C16.0562 10.6342 15.8079 10.6342 15.5166 10.6342H15.4533H12.4133ZM11.8851 11.9186C11.9395 11.906 12.0244 11.9009 12.4133 11.9009H15.4533C15.8434 11.9009 15.927 11.9047 15.9815 11.9186C16.0953 11.9459 16.1993 12.004 16.282 12.0868C16.3647 12.1695 16.4229 12.2735 16.4501 12.3873C16.4628 12.4405 16.4666 12.5241 16.4666 12.9142V15.9542C16.4666 16.3444 16.4615 16.428 16.4489 16.4824C16.4217 16.5962 16.3635 16.7003 16.2807 16.783C16.198 16.8657 16.094 16.9239 15.9802 16.9511C15.927 16.9638 15.8434 16.9676 15.4533 16.9676H12.4133C12.0231 16.9676 11.9395 16.9625 11.8851 16.9498C11.7713 16.9226 11.6673 16.8644 11.5845 16.7817C11.5018 16.699 11.4436 16.595 11.4164 16.4812C11.405 16.4292 11.3999 16.3456 11.3999 15.9542V12.9142C11.3999 12.5241 11.4037 12.4405 11.4177 12.386C11.4449 12.2723 11.5031 12.1682 11.5858 12.0855C11.6685 12.0028 11.7725 11.9446 11.8863 11.9174" fill="#808080"/>
</svg>