<svg xmlns="http://www.w3.org/2000/svg" width="19" height="19" viewBox="0 0 19 19" fill="none">
  <g clip-path="url(#clip0_478_6117)">
    <path d="M10.6875 1.1875C10.6875 0.530664 10.1568 0 9.5 0C8.84316 0 8.3125 0.530664 8.3125 1.1875V10.1939L5.58867 7.47012C5.1248 7.00625 4.37148 7.00625 3.90762 7.47012C3.44375 7.93398 3.44375 8.6873 3.90762 9.15117L8.65762 13.9012C9.12148 14.365 9.8748 14.365 10.3387 13.9012L15.0887 9.15117C15.5525 8.6873 15.5525 7.93398 15.0887 7.47012C14.6248 7.00625 13.8715 7.00625 13.4076 7.47012L10.6875 10.1939V1.1875ZM2.375 13.0625C1.06504 13.0625 0 14.1275 0 15.4375V16.625C0 17.935 1.06504 19 2.375 19H16.625C17.935 19 19 17.935 19 16.625V15.4375C19 14.1275 17.935 13.0625 16.625 13.0625H12.8584L11.1773 14.7436C10.2496 15.6713 8.74668 15.6713 7.81895 14.7436L6.1416 13.0625H2.375ZM16.0312 15.1406C16.2675 15.1406 16.494 15.2345 16.661 15.4015C16.828 15.5685 16.9219 15.795 16.9219 16.0312C16.9219 16.2675 16.828 16.494 16.661 16.661C16.494 16.828 16.2675 16.9219 16.0312 16.9219C15.795 16.9219 15.5685 16.828 15.4015 16.661C15.2345 16.494 15.1406 16.2675 15.1406 16.0312C15.1406 15.795 15.2345 15.5685 15.4015 15.4015C15.5685 15.2345 15.795 15.1406 16.0312 15.1406Z" fill="#FAFAFA"/>
  </g>
  <defs>
    <clipPath id="clip0_478_6117">
      <rect width="19" height="19" fill="white"/>
    </clipPath>
  </defs>
</svg>