<svg xmlns="http://www.w3.org/2000/svg" width="16" height="16" viewBox="0 0 16 16" fill="none">
  <mask id="mask0_19_6409" style="mask-type:alpha" maskUnits="userSpaceOnUse" x="0" y="0" width="16" height="16">
    <rect width="16" height="16" fill="#D9D9D9"/>
  </mask>
  <g mask="url(#mask0_19_6409)">
    <path d="M7.99984 10.6666C8.83317 10.6666 9.5415 10.375 10.1248 9.79163C10.7082 9.20829 10.9998 8.49996 10.9998 7.66663C10.9998 6.83329 10.7082 6.12496 10.1248 5.54163C9.5415 4.95829 8.83317 4.66663 7.99984 4.66663C7.1665 4.66663 6.45817 4.95829 5.87484 5.54163C5.2915 6.12496 4.99984 6.83329 4.99984 7.66663C4.99984 8.49996 5.2915 9.20829 5.87484 9.79163C6.45817 10.375 7.1665 10.6666 7.99984 10.6666ZM7.99984 9.46663C7.49984 9.46663 7.07484 9.29163 6.72484 8.94163C6.37484 8.59163 6.19984 8.16663 6.19984 7.66663C6.19984 7.16663 6.37484 6.74163 6.72484 6.39163C7.07484 6.04163 7.49984 5.86663 7.99984 5.86663C8.49984 5.86663 8.92484 6.04163 9.27484 6.39163C9.62484 6.74163 9.79984 7.16663 9.79984 7.66663C9.79984 8.16663 9.62484 8.59163 9.27484 8.94163C8.92484 9.29163 8.49984 9.46663 7.99984 9.46663ZM7.99984 12.6666C6.37761 12.6666 4.89984 12.2138 3.5665 11.3083C2.23317 10.4027 1.2665 9.18885 0.666504 7.66663C1.2665 6.1444 2.23317 4.93052 3.5665 4.02496C4.89984 3.1194 6.37761 2.66663 7.99984 2.66663C9.62206 2.66663 11.0998 3.1194 12.4332 4.02496C13.7665 4.93052 14.7332 6.1444 15.3332 7.66663C14.7332 9.18885 13.7665 10.4027 12.4332 11.3083C11.0998 12.2138 9.62206 12.6666 7.99984 12.6666ZM7.99984 11.3333C9.25539 11.3333 10.4082 11.0027 11.4582 10.3416C12.5082 9.68051 13.3109 8.78885 13.8665 7.66663C13.3109 6.5444 12.5082 5.65274 11.4582 4.99163C10.4082 4.33051 9.25539 3.99996 7.99984 3.99996C6.74428 3.99996 5.5915 4.33051 4.5415 4.99163C3.4915 5.65274 2.68873 6.5444 2.13317 7.66663C2.68873 8.78885 3.4915 9.68051 4.5415 10.3416C5.5915 11.0027 6.74428 11.3333 7.99984 11.3333Z" fill="white"/>
  </g>
</svg>