<svg xmlns="http://www.w3.org/2000/svg" width="24" height="24" viewBox="0 0 24 24" fill="none">
  <mask id="mask0_23_4534" style="mask-type:alpha" maskUnits="userSpaceOnUse" x="0" y="0" width="24" height="24">
    <rect x="24" y="24" width="24" height="24" transform="rotate(180 24 24)" fill="#D9D9D9"/>
  </mask>
  <g mask="url(#mask0_23_4534)">
    <path d="M9.28038 6.71962C9.67575 6.32425 10.3239 6.33547 10.7123 6.73772C11.0911 7.13011 11.0909 7.75912 10.7052 8.14481L7.85 11L19 11C19.5523 11 20 11.4477 20 12C20 12.5523 19.5523 13 19 13L7.85 13L10.7052 15.8552C11.0909 16.2409 11.0911 16.8699 10.7123 17.2623C10.3239 17.6645 9.67576 17.6758 9.28038 17.2804L4.70711 12.7071C4.31658 12.3166 4.31658 11.6834 4.70711 11.2929L9.28038 6.71962Z" fill="#4367B0"/>
  </g>
</svg>