<svg width="19" height="20" viewBox="0 0 19 20" fill="none" xmlns="http://www.w3.org/2000/svg">
<path d="M3.95833 17.1253C3.52292 17.1253 3.15031 16.9704 2.8405 16.6606C2.53069 16.3508 2.37553 15.9779 2.375 15.542V4.45866C2.375 4.02324 2.53017 3.65063 2.8405 3.34083C3.15083 3.03102 3.52344 2.87585 3.95833 2.87533H7.28333C7.45486 2.40033 7.74197 2.01769 8.14467 1.72741C8.54736 1.43713 8.99914 1.29199 9.5 1.29199C10.0014 1.29199 10.4534 1.43713 10.8561 1.72741C11.2588 2.01769 11.5457 2.40033 11.7167 2.87533H15.0417C15.4771 2.87533 15.85 3.03049 16.1603 3.34083C16.4706 3.65116 16.6255 4.02377 16.625 4.45866V15.542C16.625 15.9774 16.4701 16.3503 16.1603 16.6606C15.8505 16.971 15.4776 17.1259 15.0417 17.1253H3.95833ZM3.95833 15.542H15.0417V4.45866H3.95833V15.542ZM5.54167 13.9587H11.0833V12.3753H5.54167V13.9587ZM5.54167 10.792H13.4583V9.20866H5.54167V10.792ZM5.54167 7.62533H13.4583V6.04199H5.54167V7.62533ZM9.5 3.86491C9.67153 3.86491 9.8135 3.8087 9.92592 3.69628C10.0383 3.58387 10.0943 3.44216 10.0938 3.27116C10.0938 3.09963 10.0375 2.95792 9.92513 2.84603C9.81271 2.73415 9.671 2.67794 9.5 2.67741C9.32847 2.67741 9.18676 2.73362 9.07488 2.84603C8.96299 2.95845 8.90678 3.10016 8.90625 3.27116C8.90625 3.44269 8.96246 3.58466 9.07488 3.69708C9.18729 3.80949 9.329 3.86544 9.5 3.86491Z" fill="#FAFAFA"/>
</svg>
