<svg xmlns="http://www.w3.org/2000/svg" width="19" height="20" viewBox="0 0 19 20" fill="none">
  <g clip-path="url(#clip0_597_5451)">
    <path fill-rule="evenodd" clip-rule="evenodd" d="M12.4348 9.44092C12.5832 9.58938 12.6666 9.79071 12.6666 10.0006C12.6666 10.2106 12.5832 10.4119 12.4348 10.5603L7.95632 15.0388C7.88329 15.1144 7.79593 15.1747 7.69935 15.2162C7.60276 15.2577 7.49888 15.2795 7.39376 15.2805C7.28864 15.2814 7.1844 15.2613 7.0871 15.2215C6.98981 15.1817 6.90142 15.1229 6.82709 15.0486C6.75276 14.9743 6.69397 14.8859 6.65417 14.7886C6.61436 14.6913 6.59433 14.5871 6.59524 14.4819C6.59616 14.3768 6.618 14.2729 6.65949 14.1764C6.70098 14.0798 6.76129 13.9924 6.8369 13.9194L10.7557 10.0006L6.8369 6.08188C6.69269 5.93257 6.6129 5.73259 6.6147 5.52502C6.6165 5.31745 6.69976 5.11889 6.84654 4.97211C6.99333 4.82533 7.19189 4.74207 7.39946 4.74026C7.60703 4.73846 7.80701 4.81826 7.95632 4.96246L12.4348 9.44092Z" fill="#808080"/>
  </g>
  <defs>
    <clipPath id="clip0_597_5451">
      <rect width="19" height="19" fill="white" transform="translate(0 0.5)"/>
    </clipPath>
  </defs>
</svg>