<svg width="15" height="16" viewBox="0 0 15 16" fill="none" xmlns="http://www.w3.org/2000/svg">
<path d="M7.5 15.125C6.51042 15.125 5.58364 14.9371 4.71967 14.5613C3.85569 14.1856 3.10361 13.6776 2.46342 13.0374C1.82322 12.3972 1.31524 11.6451 0.939458 10.7811C0.563681 9.91715 0.375528 8.99011 0.375 8C0.375 7.01042 0.563153 6.08364 0.939458 5.21967C1.31576 4.35569 1.82349 3.60361 2.46263 2.96342C3.10282 2.32322 3.8549 1.81524 4.71888 1.43946C5.58285 1.06368 6.50989 0.875528 7.5 0.875C8.58194 0.875 9.60794 1.1059 10.578 1.56771C11.5481 2.02951 12.3693 2.68264 13.0417 3.52708V1.66667H14.625V6.41667H9.875V4.83333H12.0521C11.5111 4.09444 10.8448 3.51389 10.0531 3.09167C9.26146 2.66944 8.41042 2.45833 7.5 2.45833C5.95625 2.45833 4.64683 2.99614 3.57175 4.07175C2.49667 5.14736 1.95886 6.45678 1.95833 8C1.95833 9.54375 2.49614 10.8534 3.57175 11.929C4.64736 13.0047 5.95678 13.5422 7.5 13.5417C8.88542 13.5417 10.0961 13.0931 11.1322 12.1958C12.1682 11.2986 12.7783 10.1639 12.9625 8.79167H14.5854C14.3875 10.5993 13.6125 12.1069 12.2603 13.3145C10.9081 14.522 9.32136 15.1255 7.5 15.125ZM9.71667 11.325L6.70833 8.31667V4.04167H8.29167V7.68333L10.825 10.2167L9.71667 11.325Z" fill="#FAFAFA"/>
</svg>
