<svg width="16" height="17" viewBox="0 0 16 17" fill="none" xmlns="http://www.w3.org/2000/svg">
<path d="M8.00065 13.166C8.36884 13.166 8.66732 12.8675 8.66732 12.4993V10.4993H9.83507C10.1705 10.4993 10.3569 10.1114 10.1474 9.84947L8.313 7.55645C8.15287 7.35629 7.84843 7.35629 7.6883 7.55645L5.85389 9.84947C5.64436 10.1114 5.83083 10.4993 6.16623 10.4993H7.33398V12.4993C7.33398 12.8675 7.63246 13.166 8.00065 13.166Z" fill="white"/>
<path d="M4.66732 13.1673H5.33398C5.70217 13.1673 6.00065 12.8688 6.00065 12.5007C6.00065 12.1325 5.70217 11.834 5.33398 11.834H4.66732C3.56465 11.834 2.66732 10.9367 2.66732 9.83398C2.66732 8.89798 3.46665 7.99665 4.44932 7.82398L4.83665 7.75599L4.96465 7.38398C5.43332 6.01665 6.59732 5.16732 8.00065 5.16732C9.83865 5.16732 11.334 6.66265 11.334 8.50065V9.16732H12.0007C12.736 9.16732 13.334 9.76532 13.334 10.5007C13.334 11.236 12.736 11.834 12.0007 11.834H10.6673C10.2991 11.834 10.0007 12.1325 10.0007 12.5007C10.0007 12.8688 10.2991 13.1673 10.6673 13.1673H12.0007C13.4713 13.1673 14.6673 11.9713 14.6673 10.5007C14.6663 9.90306 14.4651 9.32304 14.0958 8.85321C13.7265 8.38337 13.2104 8.05082 12.63 7.90865C12.3387 5.61399 10.374 3.83398 8.00065 3.83398C6.16332 3.83398 4.56732 4.90798 3.83865 6.60065C2.40665 7.02865 1.33398 8.38065 1.33398 9.83398C1.33398 11.672 2.82932 13.1673 4.66732 13.1673Z" fill="white"/>
</svg>
